<svg width="32" height="36" viewBox="0 0 32 36" fill="none" xmlns="http://www.w3.org/2000/svg">
<path d="M31.7805 0L28.8852 32.3962L15.8708 36L2.89222 32.4013L0 0L31.7805 0Z" fill="#264DE4"/>
<path d="M26.4069 30.3345L28.8811 2.65039L15.8906 2.65039V33.2465L26.4069 30.3345Z" fill="#2965F1"/>
<path d="M6.62891 14.666L6.98549 18.6399H15.8888V14.666H6.62891Z" fill="#EBEBEB"/>
<path d="M15.8944 6.62305H15.8806H5.91797L6.27964 10.597H15.8944V6.62305Z" fill="#EBEBEB"/>
<path d="M15.8896 29.1232V24.9887L15.8722 24.9933L11.4412 23.7983L11.1579 20.6289H9.00483H7.16406L7.72146 26.8685L15.8713 29.1283L15.8896 29.1232Z" fill="#EBEBEB"/>
<path d="M20.7742 18.6401L20.3124 23.794L15.875 24.9902V29.1246L24.0313 26.8667L24.0912 26.1953L25.0261 15.7334L25.1232 14.6663L25.8414 6.62305H15.875V10.597H21.4812L21.1192 14.6663H15.875V18.6401H20.7742Z" fill="white"/>
</svg>
