<svg width="35" height="36" viewBox="0 0 35 36" fill="none" xmlns="http://www.w3.org/2000/svg">
<path d="M4.85352 32.3438L2.05078 0H32.8809L30.0781 32.3438L17.4316 36" fill="#E34F26"/>
<path d="M17.5 33.1875L27.6855 30.3047L30.0781 2.60156H17.5" fill="#EF652A"/>
<path d="M17.5 14.625H12.373L12.0312 10.5469H17.5V6.60938H17.4316H7.79297L7.86133 7.66406L8.81836 18.6328H17.5V14.625ZM17.5 24.9609H17.4316L13.125 23.7656L12.8516 20.6016H10.8008H9.02344L9.50195 26.8594L17.4316 29.1094H17.5V24.9609Z" fill="#EBEBEB"/>
<path d="M17.4297 14.625V18.6328H22.2148L21.7363 23.7656L17.4297 24.9609V29.1094L25.3594 26.8594L25.4277 26.1562L26.3164 15.6797L26.4531 14.625H25.3594H17.4297ZM17.4297 6.60938V9.07031V10.5469H26.7949L26.8633 9.70312L27.0684 7.66406L27.1367 6.60938H17.4297Z" fill="white"/>
</svg>
