<svg width="36" height="36" viewBox="0 0 36 36" fill="none" xmlns="http://www.w3.org/2000/svg">
<g clip-path="url(#clip0_1985_156)">
<path d="M36 0L0 0L0 36H36V0Z" fill="#F7DF1E"/>
<path d="M24.1806 28.1245C24.9057 29.3085 25.8491 30.1788 27.5177 30.1788C28.9194 30.1788 29.8148 29.4782 29.8148 28.5102C29.8148 27.3502 28.8948 26.9394 27.352 26.2645L26.5063 25.9017C24.0651 24.8617 22.4434 23.5588 22.4434 20.8045C22.4434 18.2674 24.3766 16.3359 27.3977 16.3359C29.5486 16.3359 31.0948 17.0845 32.2091 19.0445L29.5748 20.7359C28.9948 19.6959 28.3691 19.2862 27.3977 19.2862C26.4068 19.2862 25.7788 19.9148 25.7788 20.7359C25.7788 21.7508 26.4074 22.1617 27.8588 22.7902L28.7046 23.1525C31.5788 24.3851 33.2017 25.6417 33.2017 28.4668C33.2017 31.5125 30.8091 33.1811 27.596 33.1811C24.4543 33.1811 22.4246 31.6839 21.4314 29.7217L24.1806 28.1245ZM12.2303 28.4177C12.7617 29.3605 13.2451 30.1577 14.4074 30.1577C15.5188 30.1577 16.22 29.7228 16.22 28.0319V16.5291H19.6028V28.0777C19.6028 31.5805 17.5491 33.1748 14.5514 33.1748C11.8428 33.1748 10.2743 31.7731 9.47656 30.0848L12.2303 28.4177Z" fill="black"/>
</g>
<defs>
<clipPath id="clip0_1985_156">
<rect width="36" height="36" rx="5" fill="white"/>
</clipPath>
</defs>
</svg>
