<svg width="27" height="36" viewBox="0 0 27 36" fill="none" xmlns="http://www.w3.org/2000/svg">
<g clip-path="url(#clip0_1991_245)">
<path d="M8.70808 27.8301C8.70808 27.8301 7.31606 28.6287 9.69873 28.8989C12.5853 29.2238 14.0606 29.1772 17.2416 28.5832C17.2416 28.5832 18.0779 29.1006 19.2458 29.5486C12.1149 32.5636 3.1071 29.374 8.70808 27.8301Z" fill="#5382A1"/>
<path d="M7.83553 23.8945C7.83553 23.8945 6.27424 25.0346 8.65868 25.2779C11.7422 25.5918 14.1773 25.6174 18.391 24.817C18.391 24.817 18.9738 25.3999 19.8902 25.7187C11.2685 28.2058 1.66539 25.9148 7.83553 23.8945Z" fill="#5382A1"/>
<path d="M15.1819 17.2218C16.939 19.2174 14.7203 21.0133 14.7203 21.0133C14.7203 21.0133 19.1817 18.7412 17.1328 15.896C15.2191 13.2427 13.7516 11.9243 21.6962 7.37891C21.6962 7.37891 9.22581 10.4514 15.1819 17.2218Z" fill="#E76F00"/>
<path d="M24.6128 30.7395C24.6128 30.7395 25.6429 31.5768 23.4783 32.2246C19.3622 33.4547 6.34674 33.8261 2.7311 32.2736C1.43137 31.7158 3.86873 30.9417 4.63544 30.7793C5.43503 30.6082 5.89197 30.6401 5.89197 30.6401C4.44653 29.6356 -3.45072 32.6125 1.88055 33.4651C16.4197 35.7911 28.384 32.4176 24.6128 30.7395Z" fill="#5382A1"/>
<path d="M9.37684 19.8183C9.37684 19.8183 2.75634 21.3696 7.03235 21.9329C8.83782 22.1714 12.437 22.1175 15.7895 21.8403C18.5293 21.6123 21.2805 21.1276 21.2805 21.1276C21.2805 21.1276 20.3144 21.5357 19.6154 22.0066C12.8924 23.7509 -0.0951572 22.9394 3.6438 21.1552C6.80585 19.6473 9.37684 19.8183 9.37684 19.8183Z" fill="#5382A1"/>
<path d="M21.2545 26.3668C28.0888 22.8634 24.9289 19.4966 22.7233 19.9502C22.1828 20.0612 21.9417 20.1574 21.9417 20.1574C21.9417 20.1574 22.1424 19.8472 22.5257 19.713C26.889 18.1997 30.2447 24.1763 21.1172 26.5434C21.1172 26.5435 21.2229 26.4502 21.2545 26.3668Z" fill="#5382A1"/>
<path d="M17.1313 0.0390625C17.1313 0.0390625 20.9162 3.77418 13.5415 9.51774C7.62771 14.1251 12.193 16.752 13.539 19.7535C10.0871 16.6809 7.55378 13.9762 9.25331 11.4589C11.7478 7.76365 18.6584 5.97207 17.1313 0.0390625Z" fill="#E76F00"/>
<path d="M10.0484 35.8604C16.6084 36.2746 26.682 35.6305 26.9206 32.5684C26.9206 32.5684 26.462 33.7292 21.4991 34.6511C15.9 35.6906 8.99429 35.5692 4.89844 34.903C4.89854 34.9029 5.73691 35.5876 10.0484 35.8604Z" fill="#5382A1"/>
</g>
<defs>
<clipPath id="clip0_1991_245">
<rect width="27" height="36" fill="white"/>
</clipPath>
</defs>
</svg>
