<svg width="35" height="36" viewBox="0 0 35 36" fill="none" xmlns="http://www.w3.org/2000/svg">
<g clip-path="url(#clip0_1991_255)">
<path fill-rule="evenodd" clip-rule="evenodd" d="M34.7382 8.00576C34.7511 8.05294 34.7577 8.10158 34.7578 8.15045V15.7464C34.7578 15.8439 34.7318 15.9397 34.6824 16.0241C34.633 16.1084 34.5619 16.1784 34.4764 16.2269L28.0301 19.8975V27.173C28.0301 27.371 27.9237 27.5538 27.7501 27.6534L14.294 35.3145C14.2632 35.3318 14.2296 35.3429 14.196 35.3547C14.1834 35.3588 14.1715 35.3664 14.1582 35.3699C14.0641 35.3944 13.9653 35.3944 13.8712 35.3699C13.8558 35.3658 13.8418 35.3574 13.8271 35.3519C13.7963 35.3408 13.7641 35.3311 13.7347 35.3145L0.2814 27.6534C0.195935 27.6049 0.124922 27.5349 0.0755192 27.4506C0.0261159 27.3662 6.77176e-05 27.2705 0 27.173L0 4.38499C0 4.33514 0.007 4.28668 0.0196 4.2396C0.0238 4.22368 0.0336 4.20914 0.0392 4.19322C0.0497 4.16414 0.0595 4.13437 0.0749 4.10737C0.0854 4.08937 0.1008 4.07483 0.1134 4.05822C0.1295 4.03606 0.1442 4.01322 0.1631 3.99383C0.1792 3.97791 0.2002 3.96614 0.2184 3.9523C0.2387 3.93568 0.2569 3.91768 0.28 3.90453L7.0077 0.0739878C7.09288 0.0255128 7.18943 0 7.2877 0C7.38597 0 7.48252 0.0255128 7.5677 0.0739878L14.2947 3.90453H14.2961C14.3185 3.91837 14.3374 3.93568 14.3577 3.9516C14.3759 3.96545 14.3962 3.97791 14.4123 3.99314C14.4319 4.01322 14.4459 4.03606 14.4627 4.05822C14.4746 4.07483 14.4907 4.08937 14.5005 4.10737C14.5166 4.13506 14.5257 4.16414 14.5369 4.19322C14.5425 4.20914 14.5523 4.22368 14.5565 4.2403C14.5694 4.28747 14.576 4.33612 14.5761 4.38499V18.6181L20.1817 15.4259V8.14976C20.1817 8.1013 20.1887 8.05214 20.2013 8.00576C20.2062 7.98914 20.2153 7.9746 20.2209 7.95868C20.2321 7.9296 20.2419 7.89983 20.2573 7.87283C20.2678 7.85483 20.2832 7.8403 20.2951 7.82368C20.3119 7.80153 20.3259 7.77868 20.3455 7.7593C20.3616 7.74337 20.3819 7.7316 20.4001 7.71776C20.4211 7.70114 20.4393 7.68314 20.4617 7.66999L27.1901 3.83945C27.2753 3.79091 27.3718 3.76536 27.4701 3.76536C27.5684 3.76536 27.6649 3.79091 27.7501 3.83945L34.4771 7.66999C34.5009 7.68383 34.5191 7.70114 34.5401 7.71707C34.5576 7.73091 34.5779 7.74337 34.594 7.7586C34.6136 7.77868 34.6276 7.80153 34.6444 7.82368C34.657 7.8403 34.6724 7.85483 34.6822 7.87283C34.6983 7.89983 34.7074 7.9296 34.7186 7.95868C34.7249 7.9746 34.734 7.98914 34.7382 8.00576ZM33.6364 15.4259V9.1093L31.2823 10.4496L28.0301 12.3015V18.6181L33.6371 15.4259H33.6364ZM26.9094 26.8524V20.5317L23.7104 22.3386L14.5754 27.4949V33.8752L26.9094 26.8524ZM1.1214 5.34383V26.8524L13.454 33.8745V27.4956L7.0112 23.8894L7.0091 23.888L7.0063 23.8866C6.9846 23.8741 6.9664 23.8561 6.9461 23.8409C6.9286 23.8271 6.9083 23.816 6.8929 23.8008L6.8915 23.7987C6.8733 23.7814 6.8607 23.7599 6.8453 23.7405C6.8313 23.7218 6.8145 23.7059 6.8033 23.6865L6.8026 23.6844C6.79 23.6637 6.7823 23.6388 6.7732 23.6152C6.7641 23.5944 6.7522 23.5751 6.7466 23.5529C6.7396 23.5266 6.7382 23.4982 6.7354 23.4712C6.7326 23.4504 6.727 23.4297 6.727 23.4089V23.4075V8.53606L3.4755 6.68345L1.1214 5.34383ZM7.2884 1.19414L1.6835 4.38499L7.287 7.57583L12.8912 4.3843L7.287 1.19414H7.2884ZM10.2032 21.1077L13.4547 19.2564V5.34383L11.1006 6.68414L7.8484 8.53606V22.4487L10.2032 21.1077ZM27.4701 4.9596L21.8659 8.15045L27.4701 11.3413L33.0736 8.14976L27.4701 4.9596ZM26.9094 12.3015L23.6572 10.4496L21.3031 9.1093V15.4259L24.5546 17.2771L26.9094 18.6181V12.3015ZM14.014 26.5361L22.2341 21.8948L26.3431 19.5756L20.7431 16.3868L14.2954 20.0581L8.4189 23.4041L14.014 26.5361Z" fill="#FF2D20"/>
</g>
<defs>
<clipPath id="clip0_1991_255">
<rect width="35" height="36" fill="white"/>
</clipPath>
</defs>
</svg>
