<svg width="38" height="38" viewBox="0 0 38 38" fill="none" xmlns="http://www.w3.org/2000/svg">
<path fill-rule="evenodd" clip-rule="evenodd" d="M32.2317 24.8034C31.6567 25.6721 31.2206 26.7411 30.0527 26.7411C28.0862 26.7411 27.9805 23.7121 26.0125 23.7121C24.0457 23.7121 24.1526 26.7411 22.1867 26.7411C20.2199 26.7411 20.1145 23.7121 18.1465 23.7121C16.1797 23.7121 16.2863 26.7411 14.3207 26.7411C12.3539 26.7411 12.2485 23.7121 10.2817 23.7121C8.31369 23.7121 8.42027 26.7411 6.45495 26.7411C5.83656 26.7411 5.40283 26.4419 5.03648 26.0316C3.62989 23.5857 2.82031 20.719 2.82031 17.6538C2.82031 8.68164 9.75739 1.4082 18.3145 1.4082C26.8719 1.4082 33.809 8.68164 33.809 17.6541C33.809 20.2191 33.242 22.6463 32.2317 24.8034V24.8034Z" fill="#FB70A9"/>
<path fill-rule="evenodd" clip-rule="evenodd" d="M12.1265 23.1997V29.9293C12.1265 31.1364 11.1465 32.1152 9.93827 32.1152C9.65101 32.1154 9.36652 32.059 9.10106 31.9493C8.83559 31.8395 8.59436 31.6785 8.39114 31.4755C8.18792 31.2725 8.0267 31.0314 7.91669 30.766C7.80668 30.5007 7.75004 30.2162 7.75 29.929V21.8059C8.1582 21.0569 8.6243 20.4085 9.46594 20.4085C10.8345 20.4085 11.3134 22.1274 12.1265 23.2V23.1997ZM20.3924 23.5509V34.1921C20.3923 34.5112 20.3294 34.8272 20.2072 35.122C20.085 35.4167 19.906 35.6846 19.6803 35.9102C19.4546 36.1357 19.1867 36.3147 18.8918 36.4367C18.597 36.5587 18.281 36.6215 17.9619 36.6214C16.6191 36.6214 15.5302 35.5337 15.5302 34.1921V22.1479C15.9883 21.2653 16.46 20.4082 17.4272 20.4082C18.9591 20.4082 19.3756 22.5582 20.3927 23.5509H20.3924ZM28.1738 23.355V31.0806C28.1738 32.288 27.1941 33.2668 25.9858 33.2668C24.7773 33.2668 23.7973 32.288 23.7973 31.0806V21.5853C24.1776 20.9337 24.6312 20.4082 25.3897 20.4082C26.8266 20.4082 27.2823 22.3023 28.1738 23.355Z" fill="#4E56A6"/>
<path fill-rule="evenodd" clip-rule="evenodd" d="M12.1265 25.2628C11.7379 24.7873 11.2787 24.4346 10.6143 24.4346C9.03606 24.4346 8.74602 26.4224 7.75 27.3178V18.7467C7.75004 18.4595 7.80667 18.1751 7.91666 17.9098C8.02666 17.6444 8.18785 17.4033 8.39104 17.2003C8.59422 16.9973 8.83542 16.8363 9.10085 16.7265C9.36628 16.6168 9.65074 16.5604 9.93797 16.5605C11.1465 16.5605 12.1265 17.5393 12.1265 18.7467V25.2628ZM20.3924 25.4157C19.9786 24.865 19.495 24.4349 18.7608 24.4349C17.0051 24.4349 16.8439 26.8945 15.5302 27.5752V23.7841C15.5302 22.4422 16.6191 21.3548 17.9619 21.3548C18.281 21.3547 18.5971 21.4174 18.8919 21.5394C19.1868 21.6615 19.4548 21.8404 19.6805 22.066C19.9062 22.2916 20.0853 22.5594 20.2075 22.8542C20.3297 23.149 20.3926 23.465 20.3927 23.7841L20.3924 25.4157ZM28.1738 24.9903C27.8366 24.6587 27.4376 24.4349 26.9076 24.4349C25.2065 24.4349 25.0023 26.7437 23.7973 27.5054V19.8122C23.7973 19.2319 24.0278 18.6753 24.4382 18.2649C24.8486 17.8545 25.4052 17.624 25.9855 17.624C26.5659 17.624 27.1225 17.8545 27.5329 18.2649C27.9433 18.6753 28.1738 19.2319 28.1738 19.8122V24.9903Z" fill="black" fill-opacity="0.298"/>
<path fill-rule="evenodd" clip-rule="evenodd" d="M32.2317 24.8034C31.6567 25.6721 31.2206 26.7411 30.0527 26.7411C28.0862 26.7411 27.9805 23.7121 26.0125 23.7121C24.0457 23.7121 24.1526 26.7411 22.1867 26.7411C20.2199 26.7411 20.1145 23.7121 18.1465 23.7121C16.1797 23.7121 16.2863 26.7411 14.3207 26.7411C12.3539 26.7411 12.2485 23.7121 10.2817 23.7121C8.31369 23.7121 8.42027 26.7411 6.45495 26.7411C5.83656 26.7411 5.40283 26.4419 5.03648 26.0316C3.62989 23.5857 2.82031 20.719 2.82031 17.6538C2.82031 8.68164 9.75739 1.4082 18.3145 1.4082C26.8719 1.4082 33.809 8.68164 33.809 17.6541C33.809 20.2191 33.242 22.6463 32.2317 24.8034V24.8034Z" fill="#FB70A9"/>
<path fill-rule="evenodd" clip-rule="evenodd" d="M28.8789 26.4162C32.939 20.3802 33.0435 13.6865 29.1933 6.33203C32.0472 9.25447 33.8088 13.2635 33.8088 17.6875C33.8088 20.2436 33.221 22.6602 32.1736 24.8101C31.5787 25.674 31.1254 26.7398 29.9144 26.7398C29.5438 26.7433 29.1816 26.6301 28.8789 26.4162Z" fill="#E24CA6"/>
<path fill-rule="evenodd" clip-rule="evenodd" d="M17.4812 21.7072C22.8695 21.7072 25.1376 18.5841 25.1376 14.1488C25.1376 9.71289 21.7096 5.63086 17.4812 5.63086C13.2522 5.63086 9.82422 9.71289 9.82422 14.1485C9.82422 18.5844 12.092 21.7072 17.4812 21.7072Z" fill="white"/>
<path fill-rule="evenodd" clip-rule="evenodd" d="M18.2935 11.2335C18.2935 12.9821 17.0075 14.4005 15.4222 14.4005C13.8357 14.4005 12.5508 12.9824 12.5508 11.2335C12.5508 9.48487 13.8357 8.06641 15.4222 8.06641C17.0075 8.06641 18.2935 9.48458 18.2935 11.2335Z" fill="#030776"/>
<path fill-rule="evenodd" clip-rule="evenodd" d="M16.3792 10.5022C16.3792 11.3094 15.7367 11.9635 14.9435 11.9635C14.1502 11.9635 13.5078 11.3094 13.5078 10.5022C13.5078 9.69503 14.1502 9.04102 14.9435 9.04102C15.7367 9.04102 16.3792 9.69503 16.3792 10.5022Z" fill="white"/>
</svg>
