<svg width="36" height="36" viewBox="0 0 36 36" fill="none" xmlns="http://www.w3.org/2000/svg">
<g clip-path="url(#clip0_1991_241)">
<path d="M17.8868 0.0976562L18.8475 1.90216C19.0635 2.23516 19.2975 2.52991 19.5732 2.80441C20.3775 3.60878 21.1414 4.45141 21.8277 5.35366C23.4555 7.49116 24.5535 9.86491 25.3377 12.4322C25.8079 14.0004 26.0633 15.6092 26.0824 17.2359C26.1612 22.0993 24.4939 26.2753 21.1324 29.7459C20.5834 30.2949 19.9962 30.8034 19.3662 31.2557C19.0332 31.2557 18.8757 31.0003 18.7384 30.7652C18.483 30.3343 18.3267 29.8427 18.2479 29.3533C18.1298 28.7649 18.0522 28.1765 18.0904 27.569V27.2945C18.0634 27.236 17.7698 0.236031 17.8868 0.0976562Z" fill="#599636"/>
<path d="M17.887 0.0387034C17.8476 -0.0400466 17.8083 0.0195784 17.7689 0.0578284C17.788 0.451578 17.6508 0.802578 17.4359 1.13783C17.1996 1.47083 16.8869 1.7262 16.573 2.0007C14.8293 3.51045 13.4568 5.33408 12.3576 7.3737C10.8951 10.1187 10.1414 13.0606 9.92765 16.1577C9.82977 17.2748 10.2809 21.2168 10.633 22.3542C11.5938 25.3737 13.3195 27.9038 15.5549 30.0998C16.1039 30.6286 16.6911 31.1191 17.2986 31.5905C17.4753 31.5905 17.4944 31.433 17.5349 31.316C17.6123 31.0656 17.6714 30.8099 17.7115 30.551L18.1053 27.6102L17.887 0.0387034Z" fill="#6CAC48"/>
<path d="M18.8499 32.4515C18.8893 32.0015 19.1053 31.628 19.3404 31.2557C19.1042 31.1578 18.9287 30.9632 18.7914 30.746C18.6733 30.5503 18.5754 30.3152 18.4989 30.0992C18.2244 29.2757 18.1659 28.4117 18.0872 27.5702V27.0605C17.9893 27.1393 17.969 27.8053 17.969 27.9043C17.9118 28.7937 17.7938 29.6781 17.6158 30.5514C17.5573 30.9047 17.5179 31.2568 17.3008 31.5707C17.3008 31.61 17.3008 31.6494 17.3199 31.7079C17.6732 32.7474 17.7699 33.806 17.8295 34.8849V35.2787C17.8295 35.7489 17.8104 35.6499 18.2008 35.8074C18.3583 35.8659 18.5338 35.8862 18.6913 36.0032C18.8094 36.0032 18.8285 35.9053 18.8285 35.8265L18.77 35.1797V33.3752C18.7509 33.0602 18.8094 32.7474 18.8488 32.4527L18.8499 32.4515Z" fill="#C2BFBF"/>
</g>
<defs>
<clipPath id="clip0_1991_241">
<rect width="36" height="36" fill="white"/>
</clipPath>
</defs>
</svg>
