<svg width="41" height="12" viewBox="0 0 41 12" fill="none" xmlns="http://www.w3.org/2000/svg">
<g clip-path="url(#clip0_1991_237)">
<path d="M16.7092 2.59041C16.0682 6.05476 15.2276 8.56954 14.1769 10.1348C13.3595 11.3452 12.4642 11.9504 11.4871 11.9504C11.2275 11.9504 10.9071 11.8725 10.5267 11.7177V10.8829C10.7127 10.9101 10.9302 10.9245 11.1813 10.9245C11.6363 10.9245 12.003 10.7992 12.2846 10.5499C12.6187 10.2452 12.7858 9.9029 12.7858 9.52412C12.7858 9.26534 12.6555 8.73316 12.3959 7.9276L10.6728 2.58499H12.2173L13.4572 6.58151C13.7356 7.48829 13.8522 8.12586 13.805 8.48064C14.4827 6.67542 14.9608 4.71368 15.2234 2.58499H16.7155M9.88576 9.49281H8.30968C8.2543 6.85281 8.10058 4.3589 7.85051 2.03194H7.83664L5.44099 9.49281H4.24316L1.85802 2.03194H1.84394C1.66741 4.26499 1.55604 6.7589 1.50981 9.49281H0.0703125C0.162986 6.16412 0.394986 3.04412 0.765892 0.132812H2.72024L4.98981 7.00934H5.00378L7.28385 0.132812H9.15414C9.56287 3.54499 9.80454 6.66499 9.87809 9.49281" fill="#00758F"/>
<path d="M37.7249 9.49825H33.2593V0.138247H34.7619V8.35042H37.7249V9.49825ZM26.4821 7.63042C26.1018 7.01999 25.9105 6.04433 25.9105 4.68781C25.9105 2.32955 26.6303 1.15042 28.0645 1.15042C28.8169 1.15042 29.3674 1.43216 29.7247 1.99564C30.105 2.60607 30.2963 3.58173 30.2963 4.90694C30.2963 7.28607 29.5765 8.47564 28.1423 8.47564C27.39 8.47564 26.8394 8.1939 26.4821 7.62938M32.0825 9.72677L30.3593 8.87842C30.5127 8.75321 30.6598 8.61755 30.7912 8.45999C31.5246 7.6012 31.8944 6.33129 31.8944 4.65129C31.8944 1.55216 30.6756 0.0078125 28.2274 0.0078125C27.0296 0.0078125 26.0944 0.40016 25.4325 1.18694C24.698 2.04677 24.3292 3.31564 24.3292 4.9852C24.3292 6.6339 24.6539 7.8339 25.3043 8.60607C25.8969 9.29894 26.7963 9.64642 27.9941 9.64642C28.4417 9.64642 28.8515 9.59154 29.2235 9.48155L31.472 10.7859L32.0857 9.73199M23.6799 6.9146C23.6799 7.70868 23.3867 8.36503 22.8025 8.8659C22.2183 9.37407 21.4366 9.62764 20.4489 9.62764C19.5295 9.62764 18.6416 9.33442 17.7695 8.7532L18.173 7.94868C18.9159 8.31807 19.5915 8.50277 20.1904 8.50277C20.7567 8.50277 21.2001 8.37755 21.5248 8.12921C21.8442 7.87981 22.0365 7.53129 22.0365 7.0899C22.0365 6.53373 21.6467 6.05894 20.9333 5.66033C20.2734 5.30033 18.9579 4.54381 18.9579 4.54381C18.2434 4.0252 17.8862 3.46903 17.8862 2.55077C17.8862 1.79216 18.153 1.18381 18.6868 0.714247C19.2216 0.246769 19.9057 0.0130299 20.7567 0.0130299C21.6299 0.0130299 22.4274 0.244682 23.1419 0.706943L22.7783 1.51042C22.1668 1.25268 21.5595 1.12225 20.9711 1.12225C20.4888 1.12225 20.1168 1.23807 19.8573 1.46973C19.5967 1.69929 19.436 1.99564 19.436 2.35668C19.436 2.91077 19.8342 3.39181 20.5708 3.79668C21.238 4.15773 22.5882 4.92364 22.5882 4.92364C23.3226 5.4412 23.6914 5.99842 23.6914 6.90625" fill="#F29111"/>
<path d="M38.5659 9.49939H38.815V8.54669H39.1407V8.35261H38.2266V8.54669H38.5649L38.5659 9.49939ZM40.4678 9.49939H40.7031V8.35156H40.3501L40.0622 9.13313L39.7491 8.35156H39.4086V9.49939H39.6314V8.626H39.644L39.9718 9.49939H40.141L40.4688 8.626V9.49939" fill="#F29111"/>
</g>
<defs>
<clipPath id="clip0_1991_237">
<rect width="41" height="12" fill="white"/>
</clipPath>
</defs>
</svg>
