<svg width="43" height="23" viewBox="0 0 43 23" fill="none" xmlns="http://www.w3.org/2000/svg">
<g clip-path="url(#clip0_1986_178)">
<mask id="mask0_1986_178" style="mask-type:luminance" maskUnits="userSpaceOnUse" x="0" y="0" width="43" height="23">
<path d="M0.605469 11.5C0.605469 17.5201 9.96084 22.4004 21.5008 22.4004C33.0408 22.4004 42.3962 17.5201 42.3962 11.5C42.3962 5.47998 33.0408 0.599568 21.5008 0.599568C9.96084 0.599568 0.605469 5.47998 0.605469 11.5Z" fill="white"/>
</mask>
<g mask="url(#mask0_1986_178)">
<path d="M0.605469 11.5C0.605469 17.5201 9.96084 22.4004 21.5008 22.4004C33.0408 22.4004 42.3962 17.5201 42.3962 11.5C42.3962 5.47998 33.0408 0.599568 21.5008 0.599568C9.96084 0.599568 0.605469 5.47998 0.605469 11.5Z" fill="url(#paint0_radial_1986_178)"/>
</g>
<mask id="mask1_1986_178" style="mask-type:luminance" maskUnits="userSpaceOnUse" x="-1" y="-1" width="45" height="25">
<path d="M-0.265625 -0.640687H43.2664V23.6426H-0.265625V-0.640687Z" fill="white"/>
</mask>
<g mask="url(#mask1_1986_178)">
<path d="M21.501 21.5918C32.5902 21.5918 41.5801 17.0738 41.5801 11.5007C41.5801 5.92759 32.5902 1.40955 21.501 1.40955C10.4118 1.40955 1.42188 5.92759 1.42188 11.5007C1.42188 17.0738 10.4118 21.5918 21.501 21.5918Z" fill="#777BB3"/>
</g>
<mask id="mask2_1986_178" style="mask-type:luminance" maskUnits="userSpaceOnUse" x="-1" y="-1" width="45" height="25">
<path d="M-0.265625 -0.640687H43.2664V23.6426H-0.265625V-0.640687Z" fill="white"/>
</mask>
<g mask="url(#mask2_1986_178)">
<path d="M11.9576 12.7523C12.8694 12.7523 13.5501 12.5856 13.9808 12.2568C14.4069 11.9315 14.7012 11.3678 14.8555 10.5815C14.9993 9.84658 14.9445 9.33341 14.6927 9.05647C14.4352 8.77362 13.8785 8.63017 13.0381 8.63017H11.5809L10.7731 12.7523H11.9576ZM7.19151 17.8301C7.12387 17.8301 7.05963 17.8001 7.01663 17.7482C6.97355 17.6964 6.95609 17.6282 6.96901 17.5624L9.10994 6.63857C9.13065 6.53296 9.22399 6.45667 9.33251 6.45667H13.9468C15.3969 6.45667 16.4763 6.84715 17.1547 7.61739C17.8368 8.39168 18.0475 9.47401 17.7807 10.8342C17.6722 11.3884 17.4855 11.9031 17.2259 12.3639C16.966 12.8252 16.6225 13.252 16.2048 13.6327C15.7048 14.0968 15.1389 14.4333 14.5243 14.6314C13.9195 14.8267 13.1427 14.9258 12.2156 14.9258H10.3472L9.81363 17.6481C9.79292 17.7538 9.69966 17.8301 9.59114 17.8301H7.19151Z" fill="black"/>
<path d="M11.768 8.85478H13.0383C14.0526 8.85478 14.4049 9.0755 14.5246 9.20703C14.7233 9.42543 14.7607 9.88592 14.6331 10.5386C14.4896 11.2694 14.2238 11.7875 13.8427 12.0785C13.4526 12.3763 12.8184 12.5272 11.9578 12.5272H11.0483L11.768 8.85478ZM13.9469 6.23159H9.33262C9.11556 6.23159 8.92897 6.38418 8.88755 6.59546L6.74662 17.5193C6.72077 17.6511 6.75569 17.7874 6.84177 17.8911C6.92793 17.9947 7.05626 18.0547 7.19169 18.0547H9.59124C9.80837 18.0547 9.99497 17.9021 10.0364 17.6908L10.5343 15.1504H12.2158C13.1667 15.1504 13.9672 15.0476 14.5948 14.8449C15.2403 14.6369 15.8342 14.2843 16.3599 13.7968C16.7946 13.4002 17.1527 12.955 17.424 12.4734C17.6954 11.9917 17.8904 11.4546 18.0035 10.8769C18.2843 9.44507 18.0562 8.29851 17.3256 7.46928C16.6022 6.648 15.4654 6.23159 13.9469 6.23159ZM10.4982 12.9769H11.9578C12.9252 12.9769 13.6458 12.7962 14.1193 12.4348C14.5929 12.0732 14.9123 11.4698 15.0782 10.6242C15.237 9.81239 15.1647 9.23949 14.8613 8.90574C14.5574 8.572 13.9499 8.40509 13.0383 8.40509H11.3942L10.4982 12.9769ZM13.9469 6.68128C15.335 6.68128 16.3477 7.04253 16.9842 7.7651C17.6206 8.48768 17.8123 9.49626 17.5583 10.7911C17.4538 11.3246 17.2771 11.8122 17.0282 12.2541C16.779 12.6962 16.4536 13.1005 16.0516 13.467C15.5724 13.9117 15.0401 14.2286 14.4544 14.4173C13.8687 14.6065 13.1227 14.7007 12.2158 14.7007H10.1604L9.59124 17.605H7.19169L9.33262 6.68128H13.9469Z" fill="white"/>
<path d="M23.2825 14.9258C23.2148 14.9258 23.1506 14.8958 23.1076 14.8439C23.0645 14.7921 23.047 14.724 23.0599 14.6581L24.007 9.82472C24.0971 9.36506 24.0748 9.03514 23.9445 8.89574C23.8647 8.81052 23.6249 8.66759 22.9161 8.66759H21.2004L20.0097 14.7438C19.9889 14.8495 19.8956 14.9258 19.7871 14.9258H17.4064C17.3387 14.9258 17.2745 14.8958 17.2315 14.8439C17.1884 14.7921 17.1709 14.7239 17.1839 14.6581L19.3248 3.73427C19.3455 3.62867 19.4388 3.55237 19.5474 3.55237H21.928C21.9957 3.55237 22.0599 3.58235 22.103 3.63414C22.1461 3.686 22.1635 3.75413 22.1506 3.82009L21.6339 6.45662H23.4797C24.8858 6.45662 25.8392 6.70245 26.3946 7.2082C26.9606 7.72414 27.1373 8.5491 26.9196 9.66044L25.9235 14.7438C25.9028 14.8495 25.8095 14.9258 25.7009 14.9258H23.2825Z" fill="black"/>
<path d="M21.9282 3.32729H19.5475C19.3304 3.32729 19.1438 3.47988 19.1024 3.69116L16.9615 14.615C16.9356 14.7468 16.9705 14.8831 17.0567 14.9868C17.1428 15.0904 17.2712 15.1504 17.4066 15.1504H19.7873C20.0043 15.1504 20.191 14.9978 20.2324 14.7865L21.3874 8.8922H22.9163C23.6239 8.8922 23.7724 9.0421 23.7784 9.04855C23.8213 9.09434 23.8778 9.30644 23.7846 9.78162L22.8375 14.615C22.8117 14.7468 22.8466 14.8831 22.9328 14.9868C23.0189 15.0904 23.1472 15.1504 23.2827 15.1504H25.7011C25.9182 15.1504 26.1048 14.9978 26.1463 14.7865L27.1423 9.70314C27.376 8.50989 27.1761 7.61478 26.5482 7.04248C25.949 6.49678 24.9454 6.23154 23.4798 6.23154H21.9091L22.3733 3.86279C22.3991 3.73096 22.3643 3.59455 22.2781 3.49098C22.192 3.38732 22.0636 3.32729 21.9282 3.32729ZM21.9282 3.77698L21.359 6.68123H23.4798C24.8143 6.68123 25.7347 6.91222 26.2413 7.3736C26.7479 7.83528 26.8997 8.58334 26.6972 9.6174L25.7011 14.7007H23.2827L24.2297 9.86743C24.3375 9.31761 24.2979 8.94257 24.1108 8.74261C23.9236 8.54264 23.5253 8.44251 22.9163 8.44251H21.0136L19.7873 14.7007H17.4066L19.5475 3.77698H21.9282Z" fill="white"/>
<path d="M30.688 12.7523C31.5999 12.7523 32.2806 12.5856 32.7113 12.2568C33.1374 11.9316 33.4317 11.3679 33.586 10.5815C33.7298 9.84658 33.675 9.33341 33.4232 9.05647C33.1657 8.77362 32.609 8.63017 31.7686 8.63017H30.3114L29.5035 12.7523H30.688ZM25.922 17.8301C25.8544 17.8301 25.7902 17.8001 25.7472 17.7482C25.7041 17.6964 25.6865 17.6282 25.6995 17.5624L27.8404 6.63857C27.8612 6.53296 27.9544 6.45667 28.063 6.45667H32.6772C34.1274 6.45667 35.2068 6.84715 35.8853 7.61739C36.5674 8.39161 36.7779 9.47394 36.5113 10.8342C36.4026 11.3884 36.216 11.9031 35.9564 12.3639C35.6965 12.8252 35.353 13.252 34.9353 13.6327C34.4353 14.0968 33.8694 14.4333 33.2548 14.6314C32.6499 14.8267 31.8732 14.9258 30.9461 14.9258H29.0776L28.5442 17.6481C28.5235 17.7538 28.4302 17.8301 28.3216 17.8301H25.922Z" fill="black"/>
<path d="M30.4984 8.85478H31.7687C32.783 8.85478 33.1353 9.0755 33.255 9.20703C33.4537 9.42543 33.4912 9.88592 33.3635 10.5386C33.22 11.2694 32.9541 11.7875 32.5731 12.0785C32.183 12.3763 31.5487 12.5272 30.6882 12.5272H29.7787L30.4984 8.85478ZM32.6773 6.23159H28.0631C27.846 6.23159 27.6594 6.38418 27.618 6.59546L25.4771 17.5193C25.4512 17.6511 25.4862 17.7874 25.5722 17.8911C25.6584 17.9947 25.7867 18.0547 25.9222 18.0547H28.3217C28.5388 18.0547 28.7254 17.9021 28.7669 17.6908L29.2647 15.1504H30.9462C31.8971 15.1504 32.6976 15.0476 33.3252 14.8449C33.9707 14.6369 34.5648 14.2842 35.0904 13.7966C35.5251 13.4001 35.883 12.955 36.1544 12.4734C36.4258 11.9917 36.6207 11.4546 36.7339 10.8769C37.0147 9.445 36.7866 8.29844 36.056 7.46921C35.3326 6.648 34.1959 6.23159 32.6773 6.23159ZM29.2286 12.9769H30.6882C31.6556 12.9769 32.3762 12.7962 32.8497 12.4348C33.3234 12.0732 33.6427 11.4698 33.8086 10.6242C33.9675 9.81239 33.8952 9.23949 33.5916 8.90574C33.2878 8.572 32.6803 8.40509 31.7687 8.40509H30.1246L29.2286 12.9769ZM32.6773 6.68128C34.0654 6.68128 35.0781 7.04253 35.7146 7.7651C36.3511 8.48768 36.5427 9.49626 36.2887 10.7911C36.1842 11.3246 36.0074 11.8122 35.7586 12.2541C35.5094 12.6962 35.184 13.1005 34.782 13.467C34.3028 13.9117 33.7705 14.2286 33.1848 14.4173C32.5991 14.6065 31.8531 14.7007 30.9462 14.7007H28.8908L28.3217 17.605H25.9222L28.0631 6.68128H32.6773Z" fill="white"/>
</g>
</g>
<defs>
<radialGradient id="paint0_radial_1986_178" cx="0" cy="0" r="1" gradientUnits="userSpaceOnUse" gradientTransform="translate(13.1511 4.43182) scale(27.4386 27.2106)">
<stop stop-color="#AEB2D5"/>
<stop offset="0.3" stop-color="#AEB2D5"/>
<stop offset="0.75" stop-color="#484C89"/>
<stop offset="1" stop-color="#484C89"/>
</radialGradient>
<clipPath id="clip0_1986_178">
<rect width="43" height="23" fill="white"/>
</clipPath>
</defs>
</svg>
