<svg width="41" height="36" viewBox="0 0 41 36" fill="none" xmlns="http://www.w3.org/2000/svg">
<path d="M40.4248 18.0041C40.4248 15.3262 37.0712 12.7883 31.9295 11.2145C33.116 5.97391 32.5887 1.80453 30.265 0.469672C29.7295 0.156557 29.1032 0.00823975 28.4193 0.00823975V1.84573C28.7983 1.84573 29.1032 1.91989 29.3587 2.05997C30.4793 2.70268 30.9654 5.14992 30.5864 8.29755C30.4958 9.0721 30.3474 9.88785 30.1662 10.7201C28.5512 10.3246 26.7878 10.0197 24.9338 9.82193C23.8215 8.29755 22.6679 6.91325 21.5061 5.70199C24.1923 3.20531 26.7137 1.83749 28.4276 1.83749V0C26.1616 0 23.1952 1.61502 20.1959 4.41657C17.1966 1.6315 14.2303 0.0329596 11.9643 0.0329596V1.87045C13.6699 1.87045 16.1996 3.23003 18.8858 5.71023C17.7322 6.92149 16.5786 8.29755 15.4827 9.82193C13.6205 10.0197 11.8572 10.3246 10.2422 10.7283C10.0526 9.90433 9.91256 9.10506 9.81369 8.33875C9.42641 5.19112 9.90433 2.74388 11.0167 2.09293C11.2639 1.94461 11.5853 1.87869 11.9643 1.87869V0.0411994C11.2721 0.0411994 10.6459 0.189517 10.1021 0.502632C7.78668 1.83749 7.26757 5.99863 8.46235 11.2227C3.33715 12.8048 0 15.3344 0 18.0041C0 20.6821 3.35363 23.22 8.49531 24.7938C7.30877 30.0343 7.83612 34.2037 10.1598 35.5386C10.6954 35.8517 11.3216 36 12.0137 36C14.2797 36 17.2461 34.385 20.2454 31.5834C23.2447 34.3685 26.211 35.967 28.477 35.967C29.1691 35.967 29.7954 35.8187 30.3392 35.5056C32.6546 34.1707 33.1737 30.0096 31.9789 24.7855C37.0877 23.2117 40.4248 20.6738 40.4248 18.0041ZM29.6965 12.5081C29.3916 13.5711 29.0126 14.667 28.5841 15.7629C28.2463 15.1037 27.892 14.4445 27.5047 13.7853C27.1257 13.1261 26.7219 12.4834 26.3182 11.8572C27.4882 12.0302 28.6171 12.2444 29.6965 12.5081ZM25.9226 21.2836C25.2799 22.396 24.6207 23.4507 23.9368 24.4312C22.7091 24.5383 21.4649 24.596 20.2124 24.596C18.9682 24.596 17.724 24.5383 16.5045 24.4395C15.8206 23.4589 15.1531 22.4125 14.5104 21.3083C13.8842 20.2289 13.3156 19.133 12.7965 18.0288C13.3074 16.9247 13.8842 15.8206 14.5022 14.7411C15.1449 13.6287 15.8041 12.574 16.488 11.5935C17.7157 11.4864 18.9599 11.4287 20.2124 11.4287C21.4566 11.4287 22.7008 11.4864 23.9203 11.5853C24.6043 12.5658 25.2717 13.6123 25.9144 14.7164C26.5406 15.7958 27.1092 16.8917 27.6283 17.9959C27.1092 19.1 26.5406 20.2042 25.9226 21.2836ZM28.5841 20.2124C29.0291 21.3165 29.4081 22.4207 29.7212 23.4919C28.6418 23.7555 27.5047 23.978 26.3264 24.1511C26.7301 23.5166 27.1339 22.8656 27.5129 22.1982C27.892 21.539 28.2463 20.8716 28.5841 20.2124ZM20.2289 29.0043C19.4626 28.2133 18.6963 27.3317 17.9382 26.3676C18.6798 26.4005 19.4379 26.4253 20.2042 26.4253C20.9787 26.4253 21.745 26.4088 22.4948 26.3676C21.7533 27.3317 20.987 28.2133 20.2289 29.0043ZM14.0984 24.1511C12.9284 23.978 11.7995 23.7638 10.7201 23.5001C11.0249 22.4372 11.404 21.3413 11.8325 20.2454C12.1703 20.9046 12.5246 21.5637 12.9119 22.2229C13.2992 22.8821 13.6947 23.5248 14.0984 24.1511ZM20.1877 7.00389C20.954 7.79492 21.7203 8.67658 22.4784 9.64065C21.7368 9.60769 20.9787 9.58297 20.2124 9.58297C19.4379 9.58297 18.6715 9.59945 17.9217 9.64065C18.6633 8.67658 19.4296 7.79492 20.1877 7.00389ZM14.0902 11.8572C13.6864 12.4916 13.2827 13.1426 12.9036 13.81C12.5246 14.4692 12.1703 15.1284 11.8325 15.7876C11.3875 14.6835 11.0085 13.5793 10.6954 12.5081C11.7748 12.2527 12.9119 12.0302 14.0902 11.8572ZM6.6331 22.1735C3.71618 20.9293 1.82925 19.2978 1.82925 18.0041C1.82925 16.7105 3.71618 15.0707 6.6331 13.8347C7.34173 13.5299 8.11627 13.258 8.91554 13.0025C9.38521 14.6175 10.0032 16.2985 10.7695 18.0206C10.0114 19.7345 9.40169 21.4072 8.94026 23.014C8.12451 22.7585 7.34997 22.4784 6.6331 22.1735ZM11.0661 33.9483C9.94552 33.3056 9.45937 30.8583 9.83841 27.7107C9.92905 26.9361 10.0774 26.1204 10.2586 25.2882C11.8737 25.6837 13.637 25.9886 15.491 26.1863C16.6033 27.7107 17.7569 29.095 18.9187 30.3062C16.2325 32.8029 13.7111 34.1707 11.9973 34.1707C11.6265 34.1625 11.3133 34.0883 11.0661 33.9483ZM30.6111 27.6695C30.9984 30.8171 30.5205 33.2644 29.4081 33.9153C29.1609 34.0636 28.8395 34.1295 28.4605 34.1295C26.7549 34.1295 24.2252 32.77 21.539 30.2898C22.6926 29.0785 23.8462 27.7024 24.9421 26.1781C26.8043 25.9803 28.5676 25.6754 30.1826 25.2717C30.3722 26.1039 30.5205 26.9032 30.6111 27.6695ZM33.7835 22.1735C33.0748 22.4784 32.3003 22.7503 31.501 23.0057C31.0314 21.3907 30.4134 19.7098 29.6471 17.9876C30.4051 16.2737 31.0149 14.6011 31.4763 12.9943C32.2921 13.2497 33.0666 13.5299 33.7917 13.8347C36.7086 15.079 38.5956 16.7105 38.5956 18.0041C38.5873 19.2978 36.7004 20.9375 33.7835 22.1735Z" fill="#61DAFB"/>
<path d="M20.2031 21.7695C22.2828 21.7695 23.9687 20.0836 23.9687 18.0039C23.9687 15.9242 22.2828 14.2383 20.2031 14.2383C18.1234 14.2383 16.4375 15.9242 16.4375 18.0039C16.4375 20.0836 18.1234 21.7695 20.2031 21.7695Z" fill="#61DAFB"/>
</svg>
