<svg width="36" height="36" viewBox="0 0 36 36" fill="none" xmlns="http://www.w3.org/2000/svg">
<g clip-path="url(#clip0_1991_220)">
<path d="M36 18C36 27.942 27.942 36 18 36C8.058 36 0 27.942 0 18C0 8.058 8.058 0 18 0C27.942 0 36 8.058 36 18ZM25.8705 6.6585C24.0405 6.7215 22.446 7.731 21.258 9.1245C19.941 10.6545 19.0665 12.468 18.4365 14.316C17.307 13.395 16.4385 12.195 14.628 11.6745C13.179 11.229 11.6055 11.517 10.4085 12.4455C9.7935 12.924 9.3435 13.581 9.117 14.3265C8.577 16.0905 9.6885 17.664 10.1955 18.2265L11.301 19.4115C11.526 19.6425 12.0795 20.2515 11.8095 21.1185C11.52 22.065 10.383 22.674 9.2115 22.317C8.6895 22.158 7.9395 21.768 8.1105 21.222C8.178 20.997 8.3385 20.8275 8.4255 20.6355C8.5035 20.4705 8.541 20.3445 8.568 20.2725C8.7795 19.575 8.4885 18.6675 7.7415 18.438C7.044 18.2235 6.333 18.393 6.054 19.287C5.7405 20.307 6.2295 22.1565 8.844 22.9605C11.904 23.9025 14.4915 22.2345 14.8575 20.0625C15.087 18.702 14.475 17.6895 13.3485 16.392L12.4305 15.3765C11.874 14.8215 11.685 13.8735 12.2595 13.149C12.7455 12.5355 13.437 12.273 14.568 12.5805C16.2225 13.0305 16.959 14.175 18.186 15.1005C17.679 16.7655 17.346 18.435 17.0475 19.9335L16.863 21.0525C15.9855 25.6575 15.3135 28.188 13.572 29.6415C13.221 29.8905 12.717 30.2655 11.9625 30.2925C11.5635 30.3 11.4345 30.0285 11.43 29.907C11.421 29.631 11.655 29.5005 11.8125 29.3775C12.0435 29.253 12.3975 29.0415 12.3705 28.3665C12.3465 27.5685 11.6865 26.8755 10.7295 26.907C10.014 26.9325 8.925 27.6045 8.9655 28.836C9.0075 30.111 10.194 31.0635 11.9835 31.002C12.9405 30.9705 15.0765 30.5805 17.1795 28.0785C19.629 25.212 20.3145 21.927 20.8305 19.5195L21.405 16.3455C21.7245 16.3815 22.0665 16.4085 22.44 16.4175C25.488 16.4835 27.0135 14.9025 27.036 13.7535C27.051 13.0575 26.58 12.372 25.92 12.3885C25.341 12.402 24.843 12.8055 24.711 13.3695C24.57 14.0115 25.68 14.589 24.813 15.153C24.198 15.552 23.094 15.831 21.537 15.603L21.819 14.04C22.398 11.076 23.1075 7.4295 25.8105 7.3395C26.0085 7.329 26.7285 7.3485 26.745 7.824C26.7495 7.9815 26.712 8.025 26.5245 8.3865C26.352 8.619 26.2635 8.904 26.2725 9.192C26.298 9.948 26.8725 10.446 27.708 10.416C28.8225 10.3815 29.1405 9.294 29.1255 8.7375C29.0775 7.4265 27.6975 6.6015 25.8705 6.6585Z" fill="black"/>
</g>
<defs>
<clipPath id="clip0_1991_220">
<rect width="36" height="36" fill="white"/>
</clipPath>
</defs>
</svg>
