<svg width="34" height="21" viewBox="0 0 34 21" fill="none" xmlns="http://www.w3.org/2000/svg">
<g clip-path="url(#clip0_1991_231)">
<mask id="mask0_1991_231" style="mask-type:luminance" maskUnits="userSpaceOnUse" x="0" y="0" width="34" height="21">
<path d="M0 0H34V20.6182H0V0Z" fill="white"/>
</mask>
<g mask="url(#mask0_1991_231)">
<path fill-rule="evenodd" clip-rule="evenodd" d="M17 0C12.4667 0 9.63333 2.29091 8.5 6.87273C10.2 4.58182 12.1833 3.72273 14.45 4.29545C15.7433 4.62191 16.6676 5.57073 17.6907 6.62009C19.3573 8.33 21.2865 10.3091 25.5 10.3091C30.0333 10.3091 32.8667 8.01818 34 3.43636C32.3 5.72727 30.3167 6.58636 28.05 6.01364C26.7567 5.68718 25.8324 4.73836 24.8093 3.689C23.1427 1.97909 21.2135 0 17 0ZM8.5 10.3091C3.96667 10.3091 1.13333 12.6 0 17.1818C1.7 14.8909 3.68333 14.0318 5.95 14.6045C7.24326 14.9316 8.16756 15.8798 9.1907 16.9292C10.8573 18.6391 12.7865 20.6182 17 20.6182C21.5333 20.6182 24.3667 18.3273 25.5 13.7455C23.8 16.0364 21.8167 16.8955 19.55 16.3227C18.2567 15.9963 17.3324 15.0475 16.3093 13.9981C14.6427 12.2882 12.7135 10.3091 8.5 10.3091Z" fill="#38BDF8"/>
</g>
</g>
<defs>
<clipPath id="clip0_1991_231">
<rect width="34" height="21" fill="white"/>
</clipPath>
</defs>
</svg>
