<svg width="36" height="36" viewBox="0 0 36 36" fill="none" xmlns="http://www.w3.org/2000/svg">
<g clip-path="url(#clip0_1985_169)">
<path d="M32.4844 0L3.51562 0C1.574 0 0 1.574 0 3.51562L0 32.4844C0 34.426 1.574 36 3.51563 36H32.4844C34.426 36 36 34.426 36 32.4844V3.51562C36 1.574 34.426 0 32.4844 0Z" fill="#3178C6"/>
<path d="M32.4844 0L3.51562 0C1.574 0 0 1.574 0 3.51562L0 32.4844C0 34.426 1.574 36 3.51563 36H32.4844C34.426 36 36 34.426 36 32.4844V3.51562C36 1.574 34.426 0 32.4844 0Z" fill="#3178C6"/>
<path fill-rule="evenodd" clip-rule="evenodd" d="M22.2848 28.647V32.1669C22.857 32.4603 23.5337 32.6802 24.315 32.8269C25.0964 32.9735 25.9198 33.0469 26.7855 33.0469C27.6292 33.0469 28.4306 32.9662 29.1899 32.8049C29.9492 32.6436 30.615 32.3777 31.1872 32.0074C31.7594 31.6371 32.2124 31.1531 32.5462 30.5554C32.88 29.9578 33.0469 29.219 33.0469 28.339C33.0469 27.701 32.9515 27.1419 32.7608 26.6616C32.57 26.1813 32.295 25.7541 31.9354 25.3801C31.576 25.0061 31.145 24.6706 30.6425 24.3736C30.1399 24.0766 29.5732 23.7961 28.9423 23.5322C28.4801 23.3415 28.0657 23.1564 27.6988 22.9767C27.332 22.797 27.0202 22.6137 26.7635 22.4267C26.5067 22.2397 26.3086 22.0417 26.1693 21.8327C26.0299 21.6237 25.9601 21.3872 25.9601 21.1232C25.9601 20.8813 26.0225 20.6631 26.1473 20.4687C26.272 20.2744 26.448 20.1076 26.6754 19.9683C26.9029 19.829 27.1816 19.7208 27.5117 19.6438C27.8419 19.5668 28.2087 19.5283 28.6122 19.5283C28.9056 19.5283 29.2155 19.5503 29.542 19.5943C29.8685 19.6383 30.1968 19.7061 30.5269 19.7977C30.8571 19.8894 31.178 20.005 31.4898 20.1443C31.8016 20.2836 32.0895 20.4449 32.3536 20.6283V17.3393C31.8181 17.134 31.233 16.9819 30.5985 16.8829C29.9639 16.7839 29.2357 16.7344 28.4141 16.7344C27.5778 16.7344 26.7855 16.8242 26.0372 17.0039C25.2889 17.1835 24.6305 17.464 24.0619 17.8453C23.4934 18.2267 23.0441 18.7125 22.714 19.3028C22.3838 19.8931 22.2188 20.5989 22.2188 21.4202C22.2188 22.4689 22.5214 23.3635 23.1266 24.1042C23.7318 24.8448 24.6506 25.4718 25.8832 25.9851C26.3673 26.1831 26.8185 26.3774 27.2367 26.5681C27.6548 26.7588 28.0162 26.9568 28.3205 27.1621C28.625 27.3674 28.8652 27.591 29.0414 27.8331C29.2174 28.075 29.3055 28.35 29.3055 28.658C29.3055 28.8854 29.2504 29.0962 29.1404 29.2905C29.0303 29.4848 28.8634 29.6535 28.6397 29.7965C28.416 29.9395 28.1372 30.0513 27.8034 30.1319C27.4695 30.2126 27.079 30.2529 26.6314 30.2529C25.8685 30.2529 25.1129 30.1191 24.3645 29.8515C23.6163 29.5838 22.923 29.1824 22.2848 28.647ZM16.3673 19.9745H20.8828V17.0859H8.29688V19.9745H12.7903V32.8359H16.3673V19.9745Z" fill="white"/>
</g>
<defs>
<clipPath id="clip0_1985_169">
<rect width="36" height="36" rx="6" fill="white"/>
</clipPath>
</defs>
</svg>
